<svg xmlns="http://www.w3.org/2000/svg" xmlns:xlink="http://www.w3.org/1999/xlink" width="621.261" height="514.114" viewBox="0 0 621.261 514.114">
  <defs>
    <clipPath id="clip-path">
      <ellipse id="Elipse_201" data-name="Elipse 201" cx="277.557" cy="257.057" rx="277.557" ry="257.057" transform="translate(0 41)" fill="none"/>
    </clipPath>
    <linearGradient id="linear-gradient" x1="-0.085" y1="0.401" x2="0.698" y2="0.538" gradientUnits="objectBoundingBox">
      <stop offset="0" stop-color="#253654"/>
      <stop offset="1" stop-color="#0e151f"/>
    </linearGradient>
  </defs>
  <g id="ilustração" transform="translate(0 -41)">
    <g id="Grupo_901" data-name="Grupo 901" transform="translate(0 0)">
      <ellipse id="Elipse_195" data-name="Elipse 195" cx="269.557" cy="221.677" rx="269.557" ry="221.677" transform="translate(15 107)" fill="#28f"/>
      <g id="Grupo_898" data-name="Grupo 898" transform="translate(0 0)" clip-path="url(#clip-path)">
        <path id="hair" d="M251.144,37.66c1.78,2.258,3.648,4.776,6.209,3.995s2.822-3.083,4.342-4.776c3.691-4.646,8.685-1.39,11.9,1.607-1.086-1,4.776-1.129,5.384-.955a20.409,20.409,0,0,1,6.557,4.994c6.644,6.861,9.162,16.414,12.506,25.1,3.734,9.77,9.9,18.715,11.377,29.267,2.649,18.932-15.5,27.4-19.193,44.117-1,4.342-1.52,10.248-5.906,11.377a8.684,8.684,0,0,1-4.342-.391c-18.411-5.167-32-20.192-47.765-30.917a87.887,87.887,0,0,0-52.107-16.24A61.269,61.269,0,0,0,132.34,129.5c-14.112,20.192-12.462,47.765-23.188,69.824l7.773,3.561c-4.69,2.215-9.944,5.124-10.856,10.2s3.387,10.031,6.991,14.112a73.817,73.817,0,0,1,14.156,24.49,17.76,17.76,0,0,1,1.086,10.248,20.061,20.061,0,0,1-6.774,8.945l-14.46,13.027a8.381,8.381,0,0,1-3.387,2.171,8.034,8.034,0,0,1-5.645-1.259A62.485,62.485,0,0,1,74.588,263.11c-4.776-7.642-9.77-17.369-18.8-17.673-2.822,0-5.558,1.042-8.381,1s-6.036-1.824-6.079-4.646c0-4.907,7.773-4.95,11.029-8.684,5.645-6.383-4.646-14.72-7.121-20.365-3.734-7.9-4.386-16.587-8.077-24.23-2.909-6.209-7.9-11.464-9.032-18.455a13.982,13.982,0,0,1,2.736-11.377c4.559-5.341,12.723-5.167,19.106-8.077a9.293,9.293,0,0,0,5.471-5.6c1.086-4.342-2.519-7.946-4.342-11.811-4.646-9.379,2.475-15.893,4.342-24.577C58.478,95.282,38.417,86.6,44.409,73.484c3.126-6.948,12.289-7.99,19.019-11.594,9.075-4.907,13.982-15.2,22.493-20.973,5.037-3.43,10.986-5.08,16.023-8.424s9.032-9.51,15.328-12.2a28.789,28.789,0,0,1,21.711.955c15.762,5.862,27.79,10.421,44.986,8.685,15.632-1.476,31.959-5.471,47.417-.651,9.032,2.822,16.891,8.685,26.054,11.507,12.158,4.342,25.489,3.083,37.908,6.383S320.186,60.978,318.362,73.7c-1.086,7.295-4.342,12.506-.651,19.844,1.824,3.778,4.342,7.121,6.513,10.812a22.189,22.189,0,0,1-9.6,30.4" transform="translate(83.861 56.61)" fill="#061738"/>
        <path id="Caminho_871" data-name="Caminho 871" d="M160.967,131.677a31.351,31.351,0,0,0-4.776,9.206,144.2,144.2,0,0,0-4.907,27.486,116.5,116.5,0,0,0,17.934,10.161c4.038,1.389,9.336,0,13.027,1.954a37.689,37.689,0,0,1-6.383,6.209l-10.465,9.77L151.327,209.49l-18.672-12.419L77.379,160.206,53.105,144.052a93.752,93.752,0,0,1-12.375-8.381c2.215-2.215,5.949-3.344,8.685-5.384a49.1,49.1,0,0,0,5.515-5.862c1.52-1.737,3.04-3.474,4.342-5.254A65.785,65.785,0,0,0,72.646,93.378a67.7,67.7,0,0,0,0-23.665l27.7-1.433Z" transform="translate(126.881 222.608)" fill="#b0b6c9"/>
        <path id="Caminho_872" data-name="Caminho 872" d="M78.551,182.7a45.246,45.246,0,0,0,9.6,21.364,34.392,34.392,0,0,0,7.773,7.078,33.87,33.87,0,0,0,5.254,2.345l35.563,13.027a124.4,124.4,0,0,0,25.229,8.424,19.888,19.888,0,0,0,12.506-1.433,21.711,21.711,0,0,0,9.206-11.333A86.846,86.846,0,0,1,196.7,185.389a44.856,44.856,0,0,0,8.12-21.711c1.086-12.506.564-28.355,4.907-39.862a210.287,210.287,0,0,1,8.989-19.931c2.518-4.994,9.075-11.29,8.424-17.152a11.681,11.681,0,0,0-2.128-5.08,66.176,66.176,0,0,0-27.486-24.1c-8.12-3.821-16.283-7.469-24.4-11.16s-14.764-7.6-23.882-7.6H110.9a24.273,24.273,0,0,0-7.3.738,74.9,74.9,0,0,0-14.851,8.381L70.431,58.942a8.206,8.206,0,0,0-2.475,1.911,8.684,8.684,0,0,0-1.39,3.778q-4.95,25.4-10.031,50.718L45.68,137.841a32.307,32.307,0,0,0,.391,14.112,15.37,15.37,0,0,0,1.52,3.474,32.914,32.914,0,0,0,18.151,16.544,13.027,13.027,0,0,0,5.167.564,5.905,5.905,0,0,0,4.646-2.475" transform="translate(141.428 123.954)" fill="#ced4e2"/>
        <g id="Grupo_894" data-name="Grupo 894" transform="translate(190.114 265.809)">
          <path id="Caminho_873" data-name="Caminho 873" d="M47.312,65.177a11.594,11.594,0,0,0,.608,4.994,6.513,6.513,0,0,0,3.734,1.476A10.856,10.856,0,0,1,57.777,73.6c1.129,1.259,1.129,2.432,2.562,2.128s.608-2.649.608-2.649a20.971,20.971,0,0,0-3.04-2.171c-.738-.261-1.216-2.562-1.216-3.995a3.561,3.561,0,0,0-2.779-4.342C51.047,62.007,47.312,65.177,47.312,65.177Z" transform="translate(-41.417 -62.504)" fill="#b0b6c9"/>
          <path id="Caminho_874" data-name="Caminho 874" d="M48.161,65.856s1.476,7.469,3.995,9.206,5.341,4.863,4.95,6.166-9.249-6.34-10.6-11.55,0-5.645,0-5.645l1.433-1.172Z" transform="translate(-45.912 -61.316)" fill="#b0b6c9"/>
          <circle id="Elipse_196" data-name="Elipse 196" cx="2.562" cy="2.562" r="2.562" transform="translate(19.009 19.912)" fill="#373d4f"/>
        </g>
        <g id="hair_2" data-name="hair 2" transform="translate(96.721 51.701)">
          <path id="Caminho_875" data-name="Caminho 875" d="M71.045,166.921s0-8.424,3.821-9.944,19.28-1.867,22.927-5.949a19.367,19.367,0,0,0,4.342-8.685l7.121-22.971V109.212l11.55-32,21.711-9.553,38.776-5.992,44.161,17.369,15.893,27.877-3.257,24.447s23.144-7.078,25.706-10.248,21.711-33,21.711-33-1.259-19.5-16.718-26.444S195.233,35.22,195.233,35.22l-92.924,4.342L54.457,56.714,40.605,114.032,38,138.218Z" transform="translate(21.036 60.412)" fill="#061738"/>
          <path id="Caminho_876" data-name="Caminho 876" d="M65.839,30.668A54.626,54.626,0,0,1,81.688,16.685a26.358,26.358,0,0,1,20.5-2.432c12.462,4.342,19.193,19.54,32.089,22.232a92.706,92.706,0,0,0,14.329.3,25.1,25.1,0,0,1,14.373,5.08,17.369,17.369,0,0,1,6.861,13.374,71.127,71.127,0,0,1-27.139,16.5,52.107,52.107,0,0,1-31.568,0c-5.341-1.824-10.335-4.6-15.545-6.817-12.593-5.3-26.357-7.252-39.08-12.2-5.471-2.171-8.685-5.471-3.6-9.249a79.55,79.55,0,0,0,12.94-12.81Z" transform="translate(62.326 -13.197)" fill="#061738"/>
          <path id="Caminho_877" data-name="Caminho 877" d="M80.719,202.847c-2.692-3.04-1.954-7.816-3.474-11.637-2.084-5.384-8.163-6.73-13.374-6.774a33.131,33.131,0,0,1-14.764-1.693c-6.644-3.43-7.6-11.116-5.819-17.63s5.732-16.457-.478-22.1c-4.082-3.691-10.552-4.038-10.508-10.9a52.584,52.584,0,0,1,1.911-9.206c1.3-6.991-4.038-6.73-6.557-11.681-3.04-5.819,3.517-12.723,8.25-15.024,5.862-2.866,12.636-3.387,18.455-6.3a7.642,7.642,0,0,0,3.778-3.213,6.948,6.948,0,0,0-1.476-7.208c-1.607-2-3.821-3.474-5.558-5.384a19.931,19.931,0,0,1-3.344-19.54,35.824,35.824,0,0,1,14.2-17.369" transform="translate(-16.125 66.996)" fill="#061738"/>
          <path id="Caminho_878" data-name="Caminho 878" d="M47.573,56.209A56.884,56.884,0,0,1,36.284,66.63,25.272,25.272,0,0,0,28.9,70.625,15.458,15.458,0,0,0,25.124,80c-1.737,12.2-.868,29.571,8.685,38.776,2.605,2.562,5.992,4.342,7.6,7.816,2.388,4.863.391,11.377,4.342,15.589S57.126,144.1,61.6,141.013A25.142,25.142,0,0,0,72.02,129.2c2.215-6.9-1.259-14.416-.391-21.711,1.3-11.246,12.462-18.976,15.458-29.875a42.728,42.728,0,0,0,.434-15.762l-1.65-16.935a16.2,16.2,0,0,0-1.39-6.253C76.927,23.946,59.992,42.965,47.573,56.209Z" transform="translate(-24.404 54.1)" fill="#061738"/>
        </g>
        <g id="Grupo_895" data-name="Grupo 895" transform="translate(313.787 272.297)">
          <path id="Caminho_879" data-name="Caminho 879" d="M74.508,68.651c-.738-1.259,2.3-3,3.126-3.43A7.817,7.817,0,0,1,81.369,64a2.649,2.649,0,0,1,2.345,1.129,2.605,2.605,0,0,1,0,2.692c-.738,1.216-2.649,1.259-3.908,1.39a16.021,16.021,0,0,1-4.776-.347A1.129,1.129,0,0,1,74.508,68.651Z" transform="translate(-74.394 -63.999)" fill="#b0b6c9"/>
          <path id="Caminho_880" data-name="Caminho 880" d="M78.15,69.418h.261c2.084.434,6.47,0,6.166-3.126a2.475,2.475,0,0,0-1.563-2.041,3.474,3.474,0,0,0-2.822.565,4.863,4.863,0,0,0-2.215,3.865A.869.869,0,0,0,78.15,69.418Z" transform="translate(-62.49 -63.463)" fill="#b0b6c9"/>
        </g>
        <path id="Caminho_881" data-name="Caminho 881" d="M78.183,72.095c1.086-4.342,4.646-5.905,8.033-7.469.651-.3,4.038-1.52,3.908-2.345s-4.342-.347-4.994,0a38.124,38.124,0,0,0-8.077,2.084A16.675,16.675,0,0,0,73.015,66.1a2.953,2.953,0,0,0-1.172,1.607,3.778,3.778,0,0,0,0,1.563,10.465,10.465,0,0,0,2.519,5.211C75.838,76,77.618,74.136,78.183,72.095Z" transform="translate(230.595 201.033)" fill="#b0b6c9"/>
        <path id="Caminho_882" data-name="Caminho 882" d="M66.38,71.33l22.971,5.384,15.2,1.911h3.257l1.607-3.778v-3l-7.034-3.821h-9.77L79.58,69.68Z" transform="translate(221.859 227.374)" fill="#fefeff"/>
        <path id="Caminho_883" data-name="Caminho 883" d="M101.451,76.591,97.5,74.2s2.779,2.128,0,2.562A117.891,117.891,0,0,1,82.389,75.9L75.4,74.2,71.533,72.64l-1.433.391,11.811,6.991,6.817,1.607h8.684l3.951-1.607Z" transform="translate(225.043 237.18)" fill="#fefeff"/>
        <g id="Grupo_896" data-name="Grupo 896" transform="translate(286.589 287.761)">
          <path id="Caminho_884" data-name="Caminho 884" d="M68.34,78.155A53.886,53.886,0,0,1,78.2,74.16,71.779,71.779,0,0,0,88.314,68.95c4.907-3.126,15.632,0,15.632,0,3.691,0,13.027-1.042,13.678,3.865a10.509,10.509,0,0,1,0,4.646c-.564,1.737-2.258,4.342-4.342,4.082a5.255,5.255,0,0,1-2.3-1.737,11.16,11.16,0,0,0-5.905-2.779,76.384,76.384,0,0,0-19.149-.391c-2.779,0-5.688.782-8.685,1.216C75.2,78.155,69.73,79.675,68.34,78.155Z" transform="translate(-67.428 -67.56)" fill="#0b4997"/>
          <path id="Caminho_885" data-name="Caminho 885" d="M107.731,79.987c.434.478-.3,1.954-.608,2.3a6.073,6.073,0,0,1-2.779,1.042,36.954,36.954,0,0,1-15.068-1.042,57.1,57.1,0,0,1-11.029-4.95A86.843,86.843,0,0,0,68.13,71.52C74.122,78.555,81.417,84.981,88.1,91.408a17.672,17.672,0,0,0,3.821,3.387c3.691,1.52,8.12,0,11.985,0a5.166,5.166,0,0,0,1.824,0c2.258-.434,3.43-3.344,4.342-5.254s1.954-4.342,1.086-6.209a2.822,2.822,0,0,0-.695-.912Z" transform="translate(-68.13 -54.325)" fill="#0b4997"/>
        </g>
        <path id="Caminho_886" data-name="Caminho 886" d="M108.82,64.865a4.733,4.733,0,0,1,2.041,1.3c3.647,4.342,2.171,11.073,1.824,15.936a102.651,102.651,0,0,1-2.909,18.281c-.391,1.52-1.52,4.342-4.69,3.3-13.418-3.691-27.79-6.3-39.732-13.027A53.844,53.844,0,0,1,42.21,66.125a28.485,28.485,0,0,1-2.736-13.591,22.71,22.71,0,0,1,2.388-9.683c1.911-3.213,4.342-1.3,6.817.347s3.734,2.345,5.645,3.474a135.39,135.39,0,0,0,19.757,9.9,129.315,129.315,0,0,0,17.369,5.211c3.3.738,6.687,1.39,10.117,1.911a44.2,44.2,0,0,1,7.252,1.172Z" transform="translate(122.579 131.795)" fill="#081e38"/>
        <path id="Caminho_887" data-name="Caminho 887" d="M140.313,88.076a107.036,107.036,0,0,1-49.936,4.863,73.21,73.21,0,0,1-24.4-7.642,49.631,49.631,0,0,1-7.295-4.69c-2.3-1.78-5.645-4.038-6.513-6.861v-.261a23.36,23.36,0,0,1,0-6.513c0-2.519-.521-7.034,1.693-8.685a26.054,26.054,0,0,1,3.995-2.562,3.734,3.734,0,0,1,4.342,0l3.865,1.78,12.2,5.341,31.872,14.677c8.033,3.691,16.674,5.905,24.664,9.6C135.45,87.511,139.445,87.685,140.313,88.076Z" transform="translate(164.339 178.322)" fill="#081e38"/>
        <path id="Caminho_888" data-name="Caminho 888" d="M79.774,63.14V73.6a3.3,3.3,0,0,0,0,1.476,3.169,3.169,0,0,0,.955.912c3,2.041,5.254,4.6,8.033,6.861,1.78,1.389,5.167,3.821,6.948,1.129A21.711,21.711,0,0,0,96.839,75.3L95.71,71.781Z" transform="translate(257.098 205.429)" fill="#081e38"/>
        <path id="Caminho_889" data-name="Caminho 889" d="M117.587,40.47H104.256S71.689,51.456,65.74,56.232a26.054,26.054,0,0,0-8.033,10.856L54.19,102.912a30.4,30.4,0,0,0,24.968,27.139c11.768,2.345,26.054,4.342,33.479,4.95,8.12.955,16.718,2.171,25.055,2.866s16.544-.261,24.447,1.65,13.287,9.292,21.1,12.289c3.734,1.433,10.074,0,14.026,0,5.6,0,11.2.261,16.8.3a22.84,22.84,0,0,0,10.161-.695,13.461,13.461,0,0,0,4.342-5.3L130.049,42.511Z" transform="translate(171.868 129.66)" fill="#dae6f7"/>
        <path id="Caminho_890" data-name="Caminho 890" d="M125.667,47.069a188.148,188.148,0,0,0-22.1-6.3,45.246,45.246,0,0,0-27.921,4.342C59.534,53.8,61.228,81.894,62.27,97.223A32.393,32.393,0,0,0,74.906,121.5c10.161,7.078,23.926,8.685,35.91,10.465a507.609,507.609,0,0,1,80.028,17.5c11.724,3.561,20.278-3.43,23.709-14.416a52.411,52.411,0,0,0-1.737-33.7c-.782-2.215-1.52-4.342-2.3-6.687q-4.342-12.636-8.684-25.229-24.881-7.425-49.849-14.72L126.753,47.33Z" transform="translate(196.789 128.662)" fill="#081b2d"/>
        <path id="Caminho_891" data-name="Caminho 891" d="M79.608,41h1.867a36.518,36.518,0,0,1,11.594,2.171c22.406,6.513,45.377,11.768,67.783,17.586l22.059,5.6a41.816,41.816,0,0,1,10.161,3.17,21.711,21.711,0,0,1,11.073,15.719,8.678,8.678,0,0,1,0,1.476c.521,12.158-1.607,40.687-1.607,40.991a19.931,19.931,0,0,1-21.928,16.544c-12.2-2.432-15.98-3.778-34.738-7.859s-37.213-8.337-56.449-11.941A27.747,27.747,0,0,1,67.71,98.839c0-7.642.434-39.08,2.128-47.244a14.981,14.981,0,0,1,3.474-7.556,11.42,11.42,0,0,1,6.3-3.04Z" transform="translate(217.055 131.431)" fill="url(#linear-gradient)"/>
        <path id="Caminho_892" data-name="Caminho 892" d="M60.05,46.34c2.432,0,5.341.912,5.341,2.605,0,.825-2.649,34.347-2.649,34.347s.478,1.52-1.693.608-8.424-4.342-8.685-6.6,2.3-18.845,2.3-18.845c.478-2.3.651-4.646,1.129-6.948a17.717,17.717,0,0,1,.955-3.691C57.271,46.861,58.574,46.427,60.05,46.34Z" transform="translate(165.704 149.279)" fill="#202f3f"/>
        <path id="casaco" d="M212.734,141.476c-13.591-11.724-27.139-23.535-41.555-34.217A225.451,225.451,0,0,0,140.261,87.2c-2.041-1-4.082-2.128-6.123-3.213-1.3-.695-2.519-1.476-3.778-2.128s-2.128-1.52-3.083-.738-2.041,2.866-3.387,3.43a10.032,10.032,0,0,1-3.6,0h-3.908a26.054,26.054,0,0,0-8.12,1.954,13.027,13.027,0,0,1-7.729,1.086A119.414,119.414,0,0,0,87.894,89.5a63.657,63.657,0,0,1-15.719,0S44.862,92.625,35.4,106.868a69.129,69.129,0,0,0-11.16,25.489A136.049,136.049,0,0,0,21.8,147.034c-.521,6.687-.825,17.108-.825,17.108L20.2,177.864a32.7,32.7,0,0,0-1.78,7.034,145.119,145.119,0,0,0,1.911,25.229c1.476,5.037-1.086,10.6-.3,14.677s3.691,7.469,3.821,10.6,1.346,15.849,1.78,19.8,3.647,5.688,3.647,9.206a44.637,44.637,0,0,1-.825,7.6l211.034,21.711,119.152-39.08-10.421-112.9a72.56,72.56,0,0,0-24.36,8.424c-12.462,7.078-24.968,16.023-24.968,16.023A92.312,92.312,0,0,0,282.6,149.639a159.577,159.577,0,0,0-43.857-17.673s-6.427-5.428-11.681-4.6c-1.433,5.428-3.344,14.112-3.344,14.112" transform="translate(52.274 264.482)" fill="#051749"/>
        <path id="casaco-2" data-name="casaco" d="M74.016,94.72l-10.856.261a100.826,100.826,0,0,1,1.65,20.886c-.825,7.338,1.824,38.6,6.079,48.069h4.342a5.255,5.255,0,0,0,3.257-.825c1.216-.825,3.995-3.43,3.995-3.43a38.04,38.04,0,0,1,6.6-4.082c1,0-7.816-25.706-8.381-32.48S79.834,101.494,74.016,94.72Z" transform="translate(201.848 310.977)" fill="#b3c1e0"/>
        <path id="Caminho_893" data-name="Caminho 893" d="M105.748,94.53s-18.8,17.369-13.808,36.605,11.941,44.2,32.7,57.144,30.743,0,30.743,0,9.944-10.291,1.65-36.822S135.188,94.964,105.748,94.53Z" transform="translate(295.216 310.342)" fill="#020e30"/>
        <g id="Grupo_897" data-name="Grupo 897" transform="translate(369.789 123.843)">
          <path id="Caminho_894" data-name="Caminho 894" d="M113.081,317.7l2.692-1.389c13.548-7.034,27.139-15.241,36.649-27.487C163.929,273.93,165.449,256,166.23,237.8a67.522,67.522,0,0,1,6.861-23.622,186.211,186.211,0,0,0,7.773-25.532,87.321,87.321,0,0,1,6.3-20.582c5.428-10.682,11.507-21.016,17.369-31.525l7.946-19.714c5.08-12.679,12.115-24.4,17.89-36.735A130.963,130.963,0,0,0,240.83,40.23a16.675,16.675,0,0,1,2.519-7.946c4.646-5.949,9.857.261,13.287,3.734l1.65,8.685c5.384,29.05.825,62.529-5.3,91.187a204.62,204.62,0,0,0,26.879-10.161A150.849,150.849,0,0,1,312.3,115.395a4.733,4.733,0,0,1,1.563,0,7.816,7.816,0,0,1,4.342,3.951,13.027,13.027,0,0,1-4.125,11.681,36.085,36.085,0,0,1-8.685,5.862c-14.677,7.512-29.4,14.069-43.857,22.059-1.911,1.172-7.946,3.474-8.163,5.775a62.136,62.136,0,0,0,0,10.639,27.573,27.573,0,0,0,2.822,9.249,34.043,34.043,0,0,1,2.171,15.719c-.521,8.684-3.6,16.674-3.778,25.4,0,5.558-.391,15.154,4.646,18.976s13.027-1.824,16.978-4.95c4.777-3.734,7.121-9.553,10.856-14.2A73.522,73.522,0,0,1,298.1,215.527a56.752,56.752,0,0,1,18.064-12.115c5.341-1.607,16.587-2.779,20.93,1.911,3.3,3.6,0,11.247-1.954,14.807a46.2,46.2,0,0,1-7.469,8.988c-3.3,3.6-6.774,7.034-10.291,10.421s-8.207,7.6-12.419,11.246l-6.513,5.645a19.666,19.666,0,0,0-4.907,4.342,18.821,18.821,0,0,0-.868,2.171,39.3,39.3,0,0,1-8.381,12.723c-3.213,3.43-7.121,5.819-10.421,9.075a150.921,150.921,0,0,0-9.205,12.289,73.258,73.258,0,0,1-12.68,12.462c-11.116,8.163-18.151,14.112-31.481,17.63a71.3,71.3,0,0,0-22.8,13.374,659.433,659.433,0,0,0-69.954,58.316C112.994,413.447,53.94,348.444,113.081,317.7Z" transform="translate(-87.291 -29.81)" fill="#a4b8f7"/>
          <path id="Caminho_895" data-name="Caminho 895" d="M99.97,248.935s-18.064,36.258.26,63.4c5.688-2.041,43.987-25.142,52.107-47.765s10.378-69,10.378-69l6.079-44.161s8.988-38.69,15.068-51.89a281.3,281.3,0,0,0,15.5-36.866c1.824-7.946,3.083-12.679,3.083-12.679s-3.734-.434-8.207,7.6-16.674,31-16.674,31A89.323,89.323,0,0,0,167.536,110.9a377.784,377.784,0,0,1-14.112,45.55,173.693,173.693,0,0,0-4.342,33.479C148.387,223.4,108.394,244.2,99.97,248.935Z" transform="translate(-71.488 37.565)" fill="#899dce"/>
          <path id="Caminho_896" data-name="Caminho 896" d="M94.876,276.862a122.757,122.757,0,0,0,27.313-3.04,43.9,43.9,0,0,0,34.26-34.738c3.995-20.365,5.341-41.165,8.424-61.66a366.179,366.179,0,0,1,13.765-60.184c4.082-12.419,9.032-24.577,13.982-36.692l11.2-27.53c.608-1.52,1.737-3.387,3.387-3.083s2.041,2.822,1.78,4.646A140.345,140.345,0,0,1,197.05,89.32a276.122,276.122,0,0,0-18.02,59.141,388.367,388.367,0,0,0-4.6,62.529v4.69a227.4,227.4,0,0,1-2.128,26.053c-1.216,9.162-2.084,20.018-7.729,27.66a82.5,82.5,0,0,1-21.711,18.759c-10.856,7.078-21.234,14.72-31.7,22.493-2.084,1.563-4.907,4.342-7.165,2.562-.912-.738-3.6-1.52-4.038-2.605-1.693-4.342-7.6-6.817-8.685-11.16C89.752,292.928,95.7,283.375,94.876,276.862Z" transform="translate(-74.817 37.342)" fill="#899dce"/>
          <path id="Caminho_897" data-name="Caminho 897" d="M129.731,85.59c0,1.129-2.692,20.93-3.213,32.046a45.941,45.941,0,0,1-12.766,28.225c-5.167,4.082,17.065,0,26.748-7.773a369.106,369.106,0,0,0,30.917-37.17" transform="translate(-1.42 156.619)" fill="#98abe6"/>
          <path id="Caminho_898" data-name="Caminho 898" d="M117.66,163.335a60.792,60.792,0,0,1,1.433-40.036c8.467-20.626,22.753-29.4,24.49-37a114.9,114.9,0,0,0,2.953-18.237c0-2.866.825-5.905,2.475,1.737,1,4.776,2.519,9.423,3.17,14.243a115.408,115.408,0,0,1-1.3,15.936,32.61,32.61,0,0,0,4.342,17.369,8.684,8.684,0,0,1,1.433,6.991,49.713,49.713,0,0,1-1.433,5.558,131.839,131.839,0,0,1-5.471,14.46,193.79,193.79,0,0,1-15.675,29.875c-.868,1.3-9.075,13.678-10.6,7.6h0A101.138,101.138,0,0,0,117.66,163.335Z" transform="translate(5.137 87.733)" fill="#899dce"/>
          <path id="Caminho_899" data-name="Caminho 899" d="M115.379,111.471a49.848,49.848,0,0,1,7.425-13.5,74.427,74.427,0,0,1,34.13-25.011,256.186,256.186,0,0,1,29.484-9.987,191.971,191.971,0,0,0,30-10.117,3.009,3.009,0,0,1-1.259,2.215c-8.424,6.991-19.323,10.074-29.441,14.243a187.151,187.151,0,0,0-50.761,32.219,183.389,183.389,0,0,0-16.37,15.98,12.722,12.722,0,0,1-1.737,2c-1.216.912-1.824-.695-2-1.65a14.675,14.675,0,0,1,.521-6.383Z" transform="translate(4.378 47.194)" fill="#98abe6"/>
          <path id="Caminho_900" data-name="Caminho 900" d="M126.493,154.822h.825c4.342.912,9.075-2.736,12.289-5.167,14.59-11.116,24.794-31.047,20.669-48.807a52.494,52.494,0,0,0-5.3-13.027,65.117,65.117,0,0,0-4.342-6.557c-1.259-1.694-2.953-4.69-5.037-5.515-3.865-1.52-8.684,4.038-10.986,6.34a53.974,53.974,0,0,0-7.773,10.421,73.428,73.428,0,0,0-9.032,24.273,65.134,65.134,0,0,0-.695,19.931C117.9,142.447,120.023,152.651,126.493,154.822Z" transform="translate(10.85 122.864)" fill="#98abe6"/>
          <path id="Caminho_901" data-name="Caminho 901" d="M119.192,105.918v.912a65.118,65.118,0,0,0,2.345,6.948,24.623,24.623,0,0,1,1.129,6.383,12.2,12.2,0,0,0,.3,3.083c.391,1.389,1.346-.347,1.607-.782,3.257-6.209,5.645-12.679,8.337-19.106a112.587,112.587,0,0,0,6.817-20.061,166.488,166.488,0,0,0,3.43-32.133,71.391,71.391,0,0,0-.608-15.545c-.261-1.129-2.345-7.642-4.342-5.3a4.342,4.342,0,0,0-.3,2.215,153.109,153.109,0,0,1-7.512,48.286,97.136,97.136,0,0,1-6.817,15.719c-1.042,1.867-2.128,3.691-3.3,5.471a9.25,9.25,0,0,0-1.216,2.345A3.909,3.909,0,0,0,119.192,105.918Z" transform="translate(18.803 -29.8)" fill="#899dce"/>
          <path id="Caminho_902" data-name="Caminho 902" d="M158.029,151.087c6.209-6.6,12.375-13.027,19.149-19.28a136.7,136.7,0,0,1,26.444-19.757c9.77-5.949,25.749-22.753,27.617-35.693.912-6.383-5.862-7.295-10.682-6.948a33.392,33.392,0,0,0-12.549,3.43A55.057,55.057,0,0,0,197.2,80.872a151.976,151.976,0,0,0-19.8,21.711,33.871,33.871,0,0,1-14.764,11.9,22.015,22.015,0,0,1-15.893-7.208c-5.558-6.9-13.461,14.2-15.155,17.76-3.6,7.642-25.446,48.981-4.342,49.068,9.727,0,15.893-7.946,22.146-14.2C152.167,157.166,155.12,154.126,158.029,151.087Z" transform="translate(15.919 102.326)" fill="#899dce"/>
          <path id="Caminho_903" data-name="Caminho 903" d="M123.011,85.3c-2.041-8.988,1.172-18.628,4.6-27.269,1.476-3.648,2.953-7.3,4.776-10.856a2.041,2.041,0,0,1,.3-.521c0-.261.478,0,.391,0-.955,3.821-2.518,7.6-3.561,11.42-.3,1.129-.738,2.3-1,3.43-.738,2.605-1.39,5.211-2,7.86a72.389,72.389,0,0,0-1.39,7.555A27.445,27.445,0,0,0,125.1,83.3v.738a23.329,23.329,0,0,1,.478,3.04c0,1.39-1.042,3-1.824.782A18.958,18.958,0,0,1,123.011,85.3Z" transform="translate(29.964 26.082)" fill="#899dce"/>
          <path id="Caminho_904" data-name="Caminho 904" d="M140.634,102.975l56.449-29.354c6.513-3.3,13.027-6.34,19.584-9.727a19.5,19.5,0,0,0,5.124-3.691,9.509,9.509,0,0,0,2.171-6.166c.564-6.774,0,.868-14.112,7.078a239.647,239.647,0,0,1-36.692,11.073,186.722,186.722,0,0,0-22.015,7.252,69.91,69.91,0,0,0-20.148,9.987c-6.991,6.209-19.106,20.235-16.37,30.7,1.867,7.338,3.865,4.342,3.865,4.342a158.019,158.019,0,0,1,22.145-21.494Z" transform="translate(2.745 42.315)" fill="#899dce"/>
          <path id="Caminho_905" data-name="Caminho 905" d="M122.846,101.989a44.77,44.77,0,0,1,0-15.589,125.667,125.667,0,0,1,4.342-15.328c.782-2.215,1.563-4.342,2.475-6.557,1.78-4.342,3.865-8.337,5.471-12.636A79.586,79.586,0,0,0,138,42.24a28.572,28.572,0,0,1-1.042,9.944c-2.128,10.508-5.992,20.626-8.945,30.96C127.1,86.4,126.233,89.7,125.408,93c-.391,1.65-.695,3.344-1.042,4.994s-.434,3.865-1.39,4.342a.738.738,0,0,1-.13-.347Z" transform="translate(29.261 11.733)" fill="#899dce"/>
          <path id="Caminho_906" data-name="Caminho 906" d="M93.77,316.485c13.548-7.035,27.487-15.415,37-27.66C142.273,273.93,143.793,256,144.574,237.8a67.523,67.523,0,0,1,6.861-23.622,186.194,186.194,0,0,0,7.773-25.532,87.326,87.326,0,0,1,6.3-20.582c5.428-10.682,11.507-21.016,17.369-31.525l7.946-19.714c5.08-12.679,12.115-24.4,17.89-36.735A130.962,130.962,0,0,0,219.174,40.23a16.674,16.674,0,0,1,2.519-7.946c4.646-5.949,9.857.261,13.287,3.734l1.65,8.685c5.384,29.05.825,62.529-5.3,91.187a204.612,204.612,0,0,0,26.879-10.161,150.851,150.851,0,0,1,32.437-10.335,4.733,4.733,0,0,1,1.563,0,7.816,7.816,0,0,1,4.342,3.951,13.026,13.026,0,0,1-4.125,11.681,36.083,36.083,0,0,1-8.685,5.862c-14.677,7.512-29.4,14.069-43.857,22.059-1.911,1.172-7.946,3.474-8.163,5.775a62.134,62.134,0,0,0,0,10.639,27.572,27.572,0,0,0,2.822,9.249,34.043,34.043,0,0,1,2.171,15.719c-.521,8.684-3.6,16.674-3.778,25.4,0,5.558-.391,15.154,4.646,18.976s13.027-1.824,16.978-4.95c4.776-3.734,7.121-9.553,10.856-14.2a73.52,73.52,0,0,1,11.029-10.031,56.752,56.752,0,0,1,18.064-12.115c5.341-1.607,16.588-2.779,20.93,1.911,3.3,3.6,0,11.246-1.954,14.807a46.2,46.2,0,0,1-7.469,8.989c-3.3,3.6-6.774,7.034-10.291,10.421s-8.207,7.6-12.419,11.246l-6.513,5.645a19.668,19.668,0,0,0-4.907,4.342,18.846,18.846,0,0,0-.868,2.171,39.3,39.3,0,0,1-8.381,12.723c-3.213,3.43-7.121,5.819-10.421,9.075a150.937,150.937,0,0,0-9.206,12.289,73.254,73.254,0,0,1-12.679,12.462c-11.116,8.163-18.151,14.112-31.481,17.63a71.3,71.3,0,0,0-22.8,13.374,664.843,664.843,0,0,0-67.261,55.754" transform="translate(-65.635 -29.81)" fill="none" stroke="#8099d8" stroke-miterlimit="10" stroke-width="0.25"/>
        </g>
        <path id="Caminho_907" data-name="Caminho 907" d="M169.782,216.494a131.293,131.293,0,0,1-13.722-7.469,24.621,24.621,0,0,1-8.25-7.034c-1.911-2.822-1.216-5.3-4.776-7.382,0-2.084.217-9.336-14.243-24.881a226.454,226.454,0,0,0-7.729-23.188s-9.77-41.642-37.691-54.1-40.47-10.117-54.93,7.9c-2.866,6.6-9.987,27.747-9.553,61.921,0,29.006-1.867,44.552,0,48.5s3.691,5.6,3.908,8.685,0,14.5,0,14.5a94.443,94.443,0,0,1,5.08,22.319c1,11.681,84.674,18.932,84.674,18.932s85.716,15.415,113.767,10.161c127.358-24.1,130.615-34.13,130.572-34.13-22.753-3.17-41.165-6.383-63.918-9.553-38.082-5.341-76.337-6.6-112.465-20.669C176.817,219.664,173.213,218.144,169.782,216.494Z" transform="translate(51.108 277.264)" fill="#05194f"/>
        <path id="manga" d="M251.456,94.53s-40.166,69.216,36.388,98.786c0,0,26.879-3.517,14.112-44.508,0,0,22.363,38.69-10.378,49.893A231.527,231.527,0,0,1,263.7,217.025a95.528,95.528,0,0,1-24.447,9.162l-191.754,2s36.909-50.848,52.932-55.755c5.124-1.563,10.2-3.213,15.241-5.037a32.263,32.263,0,0,1,8.685-2.909,31.7,31.7,0,0,0,4.082-.261c4.342-.868,6.47-4.82,9.987-6.817a12.157,12.157,0,0,1,3.647-1.476,8.987,8.987,0,0,0,3.43-1.042q3.995-2.605,7.816-5.341c1.737-1.259,4.6-2.822,5.558-4.776s13.287-6.123,13.287-6.123L204.6,119.5s22.536-14.764,26.054-16.8S251.456,94.53,251.456,94.53Z" transform="translate(149.508 310.342)" fill="#071949"/>
        <ellipse id="Elipse_197" data-name="Elipse 197" cx="3.908" cy="5.558" rx="3.908" ry="5.558" transform="translate(252.911 420.825) rotate(-4.55)" fill="#575077"/>
        <ellipse id="Elipse_198" data-name="Elipse 198" cx="2.519" cy="3.517" rx="2.519" ry="3.517" transform="translate(255.802 422.545)" fill="#6a658e"/>
        <ellipse id="Elipse_199" data-name="Elipse 199" cx="3.908" cy="5.558" rx="3.908" ry="5.558" transform="translate(255.411 452.441) rotate(-4.55)" fill="#575077"/>
        <ellipse id="Elipse_200" data-name="Elipse 200" cx="2.519" cy="3.517" rx="2.519" ry="3.517" transform="translate(258.321 454.157)" fill="#6a658e"/>
      </g>
      <g id="Grupo_900" data-name="Grupo 900" transform="translate(197.008 123.843)">
        <path id="Caminho_908" data-name="Caminho 908" d="M105.748,94.53s-18.8,17.369-13.808,36.605,11.941,44.2,32.7,57.144,30.743,0,30.743,0,9.944-10.291,1.65-36.822S135.188,94.964,105.748,94.53Z" transform="translate(98.208 186.499)" fill="#020e30"/>
        <g id="Grupo_899" data-name="Grupo 899" transform="translate(172.781 0)">
          <path id="Caminho_909" data-name="Caminho 909" d="M113.081,317.7l2.692-1.389c13.548-7.034,27.139-15.241,36.649-27.487C163.929,273.93,165.449,256,166.23,237.8a67.522,67.522,0,0,1,6.861-23.622,186.211,186.211,0,0,0,7.773-25.532,87.321,87.321,0,0,1,6.3-20.582c5.428-10.682,11.507-21.016,17.369-31.525l7.946-19.714c5.08-12.679,12.115-24.4,17.89-36.735A130.963,130.963,0,0,0,240.83,40.23a16.675,16.675,0,0,1,2.519-7.946c4.646-5.949,9.857.261,13.287,3.734l1.65,8.685c5.384,29.05.825,62.529-5.3,91.187a204.62,204.62,0,0,0,26.879-10.161A150.849,150.849,0,0,1,312.3,115.395a4.733,4.733,0,0,1,1.563,0,7.816,7.816,0,0,1,4.342,3.951,13.027,13.027,0,0,1-4.125,11.681,36.085,36.085,0,0,1-8.685,5.862c-14.677,7.512-29.4,14.069-43.857,22.059-1.911,1.172-7.946,3.474-8.163,5.775a62.136,62.136,0,0,0,0,10.639,27.573,27.573,0,0,0,2.822,9.249,34.043,34.043,0,0,1,2.171,15.719c-.521,8.684-3.6,16.674-3.778,25.4,0,5.558-.391,15.154,4.646,18.976s13.027-1.824,16.978-4.95c4.777-3.734,7.121-9.553,10.856-14.2A73.522,73.522,0,0,1,298.1,215.527a56.752,56.752,0,0,1,18.064-12.115c5.341-1.607,16.587-2.779,20.93,1.911,3.3,3.6,0,11.247-1.954,14.807a46.2,46.2,0,0,1-7.469,8.988c-3.3,3.6-6.774,7.034-10.291,10.421s-8.207,7.6-12.419,11.246l-6.513,5.645a19.666,19.666,0,0,0-4.907,4.342,18.821,18.821,0,0,0-.868,2.171,39.3,39.3,0,0,1-8.381,12.723c-3.213,3.43-7.121,5.819-10.421,9.075a150.921,150.921,0,0,0-9.205,12.289,73.258,73.258,0,0,1-12.68,12.462c-11.116,8.163-18.151,14.112-31.481,17.63a71.3,71.3,0,0,0-22.8,13.374,659.433,659.433,0,0,0-69.954,58.316C112.994,413.447,53.94,348.444,113.081,317.7Z" transform="translate(-87.291 -29.81)" fill="#ced4e2"/>
          <path id="Caminho_910" data-name="Caminho 910" d="M99.97,248.935s-18.064,36.258.26,63.4c5.688-2.041,43.987-25.142,52.107-47.765s10.378-69,10.378-69l6.079-44.161s8.988-38.69,15.068-51.89a281.3,281.3,0,0,0,15.5-36.866c1.824-7.946,3.083-12.679,3.083-12.679s-3.734-.434-8.207,7.6-16.674,31-16.674,31A89.323,89.323,0,0,0,167.536,110.9a377.784,377.784,0,0,1-14.112,45.55,173.693,173.693,0,0,0-4.342,33.479C148.387,223.4,108.394,244.2,99.97,248.935Z" transform="translate(-71.488 37.565)" fill="#b0b6c9"/>
          <path id="Caminho_911" data-name="Caminho 911" d="M94.876,276.862a122.757,122.757,0,0,0,27.313-3.04,43.9,43.9,0,0,0,34.26-34.738c3.995-20.365,5.341-41.165,8.424-61.66a366.179,366.179,0,0,1,13.765-60.184c4.082-12.419,9.032-24.577,13.982-36.692l11.2-27.53c.608-1.52,1.737-3.387,3.387-3.083s2.041,2.822,1.78,4.646A140.345,140.345,0,0,1,197.05,89.32a276.122,276.122,0,0,0-18.02,59.141,388.367,388.367,0,0,0-4.6,62.529v4.69a227.4,227.4,0,0,1-2.128,26.053c-1.216,9.162-2.084,20.018-7.729,27.66a82.5,82.5,0,0,1-21.711,18.759c-10.856,7.078-21.234,14.72-31.7,22.493-2.084,1.563-4.907,4.342-7.165,2.562-.912-.738-3.6-1.52-4.038-2.605-1.693-4.342-7.6-6.817-8.685-11.16C89.752,292.928,95.7,283.375,94.876,276.862Z" transform="translate(-74.817 37.342)" fill="#b0b6c9"/>
          <path id="Caminho_912" data-name="Caminho 912" d="M129.731,85.59c0,1.129-2.692,20.93-3.213,32.046a45.941,45.941,0,0,1-12.766,28.225c-5.167,4.082,17.065,0,26.748-7.773a369.106,369.106,0,0,0,30.917-37.17" transform="translate(-1.42 156.619)" fill="#b9bfd4"/>
          <path id="Caminho_913" data-name="Caminho 913" d="M117.66,163.335a60.792,60.792,0,0,1,1.433-40.036c8.467-20.626,22.753-29.4,24.49-37a114.9,114.9,0,0,0,2.953-18.237c0-2.866.825-5.905,2.475,1.737,1,4.776,2.519,9.423,3.17,14.243a115.408,115.408,0,0,1-1.3,15.936,32.61,32.61,0,0,0,4.342,17.369,8.684,8.684,0,0,1,1.433,6.991,49.713,49.713,0,0,1-1.433,5.558,131.839,131.839,0,0,1-5.471,14.46,193.79,193.79,0,0,1-15.675,29.875c-.868,1.3-9.075,13.678-10.6,7.6h0A101.138,101.138,0,0,0,117.66,163.335Z" transform="translate(5.137 87.733)" fill="#b0b6c9"/>
          <path id="Caminho_915" data-name="Caminho 915" d="M126.493,154.822h.825c4.342.912,9.075-2.736,12.289-5.167,14.59-11.116,24.794-31.047,20.669-48.807a52.494,52.494,0,0,0-5.3-13.027,65.117,65.117,0,0,0-4.342-6.557c-1.259-1.694-2.953-4.69-5.037-5.515-3.865-1.52-8.684,4.038-10.986,6.34a53.974,53.974,0,0,0-7.773,10.421,73.428,73.428,0,0,0-9.032,24.273,65.134,65.134,0,0,0-.695,19.931C117.9,142.447,120.023,152.651,126.493,154.822Z" transform="translate(12.497 121.461)" fill="#b9bfd4"/>
          <path id="Caminho_916" data-name="Caminho 916" d="M119.192,105.918v.912a65.118,65.118,0,0,0,2.345,6.948,24.623,24.623,0,0,1,1.129,6.383,12.2,12.2,0,0,0,.3,3.083c.391,1.389,1.346-.347,1.607-.782,3.257-6.209,5.645-12.679,8.337-19.106a112.587,112.587,0,0,0,6.817-20.061,166.488,166.488,0,0,0,3.43-32.133,71.391,71.391,0,0,0-.608-15.545c-.261-1.129-2.345-7.642-4.342-5.3a4.342,4.342,0,0,0-.3,2.215,153.109,153.109,0,0,1-7.512,48.286,97.136,97.136,0,0,1-6.817,15.719c-1.042,1.867-2.128,3.691-3.3,5.471a9.25,9.25,0,0,0-1.216,2.345A3.909,3.909,0,0,0,119.192,105.918Z" transform="translate(18.803 -29.8)" fill="#b0b6c9"/>
          <path id="Caminho_917" data-name="Caminho 917" d="M158.029,151.087c6.209-6.6,12.375-13.027,19.149-19.28a136.7,136.7,0,0,1,26.444-19.757c9.77-5.949,25.749-22.753,27.617-35.693.912-6.383-5.862-7.295-10.682-6.948a33.392,33.392,0,0,0-12.549,3.43A55.057,55.057,0,0,0,197.2,80.872a151.976,151.976,0,0,0-19.8,21.711,33.871,33.871,0,0,1-14.764,11.9,22.015,22.015,0,0,1-15.893-7.208c-5.558-6.9-13.461,14.2-15.155,17.76-3.6,7.642-25.446,48.981-4.342,49.068,9.727,0,15.893-7.946,22.146-14.2C152.167,157.166,155.12,154.126,158.029,151.087Z" transform="translate(15.919 102.326)" fill="#b0b6c9"/>
          <path id="Caminho_919" data-name="Caminho 919" d="M140.634,102.975l56.449-29.354c6.513-3.3,13.027-6.34,19.584-9.727a19.5,19.5,0,0,0,5.124-3.691,9.509,9.509,0,0,0,2.171-6.166c.564-6.774,0,.868-14.112,7.078a239.647,239.647,0,0,1-36.692,11.073,186.722,186.722,0,0,0-22.015,7.252,69.91,69.91,0,0,0-20.148,9.987c-6.991,6.209-19.106,20.235-16.37,30.7,1.867,7.338,3.865,4.342,3.865,4.342a158.019,158.019,0,0,1,22.145-21.494Z" transform="translate(2.745 42.315)" fill="#b0b6c9"/>
          <path id="Caminho_920" data-name="Caminho 920" d="M122.846,101.989a44.77,44.77,0,0,1,0-15.589,125.667,125.667,0,0,1,4.342-15.328c.782-2.215,1.563-4.342,2.475-6.557,1.78-4.342,3.865-8.337,5.471-12.636A79.586,79.586,0,0,0,138,42.24a28.572,28.572,0,0,1-1.042,9.944c-2.128,10.508-5.992,20.626-8.945,30.96C127.1,86.4,126.233,89.7,125.408,93c-.391,1.65-.695,3.344-1.042,4.994s-.434,3.865-1.39,4.342a.738.738,0,0,1-.13-.347Z" transform="translate(29.261 11.733)" fill="#b0b6c9"/>
          <path id="Caminho_921" data-name="Caminho 921" d="M93.77,316.485c13.548-7.035,27.487-15.415,37-27.66C142.273,273.93,143.793,256,144.574,237.8a67.523,67.523,0,0,1,6.861-23.622,186.194,186.194,0,0,0,7.773-25.532,87.326,87.326,0,0,1,6.3-20.582c5.428-10.682,11.507-21.016,17.369-31.525l7.946-19.714c5.08-12.679,12.115-24.4,17.89-36.735A130.962,130.962,0,0,0,219.174,40.23a16.674,16.674,0,0,1,2.519-7.946c4.646-5.949,9.857.261,13.287,3.734l1.65,8.685c5.384,29.05.825,62.529-5.3,91.187a204.612,204.612,0,0,0,26.879-10.161,150.851,150.851,0,0,1,32.437-10.335,4.733,4.733,0,0,1,1.563,0,7.816,7.816,0,0,1,4.342,3.951,13.026,13.026,0,0,1-4.125,11.681,36.083,36.083,0,0,1-8.685,5.862c-14.677,7.512-29.4,14.069-43.857,22.059-1.911,1.172-7.946,3.474-8.163,5.775a62.134,62.134,0,0,0,0,10.639,27.572,27.572,0,0,0,2.822,9.249,34.043,34.043,0,0,1,2.171,15.719c-.521,8.684-3.6,16.674-3.778,25.4,0,5.558-.391,15.154,4.646,18.976s13.027-1.824,16.978-4.95c4.776-3.734,7.121-9.553,10.856-14.2a73.52,73.52,0,0,1,11.029-10.031,56.752,56.752,0,0,1,18.064-12.115c5.341-1.607,16.588-2.779,20.93,1.911,3.3,3.6,0,11.246-1.954,14.807a46.2,46.2,0,0,1-7.469,8.989c-3.3,3.6-6.774,7.034-10.291,10.421s-8.207,7.6-12.419,11.246l-6.513,5.645a19.668,19.668,0,0,0-4.907,4.342,18.846,18.846,0,0,0-.868,2.171,39.3,39.3,0,0,1-8.381,12.723c-3.213,3.43-7.121,5.819-10.421,9.075a150.937,150.937,0,0,0-9.206,12.289,73.254,73.254,0,0,1-12.679,12.462c-11.116,8.163-18.151,14.112-31.481,17.63a71.3,71.3,0,0,0-22.8,13.374,664.843,664.843,0,0,0-67.261,55.754" transform="translate(-65.635 -29.81)" fill="none" stroke="#b0b6c9" stroke-miterlimit="10" stroke-width="0.25"/>
        </g>
        <path id="manga-2" data-name="manga" d="M251.456,94.53s-40.166,69.216,36.388,98.786c0,0,26.879-3.517,14.112-44.508,0,0,22.363,38.69-10.378,49.893A231.527,231.527,0,0,1,263.7,217.025a109.425,109.425,0,0,1-32.567,8.684,46.333,46.333,0,0,1-5.992.434L47.5,228.011s36.909-50.674,52.932-55.581c5.211-1.607,10.378-3.3,15.458-5.124a112.541,112.541,0,0,1,12.549-3.083h0c4.342-.868,6.47-4.82,9.987-6.817a12.157,12.157,0,0,1,3.647-1.476,8.987,8.987,0,0,0,3.43-1.042q3.995-2.605,7.816-5.341c1.737-1.259,4.6-2.822,5.558-4.776s13.287-6.123,13.287-6.123L204.6,119.5s22.536-14.764,26.054-16.8S251.456,94.53,251.456,94.53Z" transform="translate(-47.5 186.499)" fill="#05194f"/>
      </g>
    </g>
  </g>
</svg>
