<svg xmlns="http://www.w3.org/2000/svg" xmlns:xlink="http://www.w3.org/1999/xlink" width="82" height="24" viewBox="0 0 82 24"><defs><style>.a{fill:none;stroke:#707070;opacity:0.61;}.b{clip-path:url(#a);}.c{fill:#373d4f;}</style><clipPath id="a"><rect class="a" width="82" height="24"/></clipPath></defs><g class="b"><g transform="translate(0 0.592)"><path class="c" d="M22.232,14.685c.122-5.521,2.89-8.266,8.274-8.266h.578v4.456H29.716c-2.251,0-3.377,1.259-3.377,3.745v9.23H22.233V14.685Z" transform="translate(-2.005 -1.07)"/><path class="c" d="M50.042,23.82a1.9,1.9,0,0,1-2.008-2.131V12.907a2.472,2.472,0,0,0-2.8-2.648A2.4,2.4,0,0,0,42.5,12.907V23.82H38.391V13.778c0-4.875,2.312-7.3,6.906-7.3s6.845,2.422,6.814,7.3V23.82Z" transform="translate(-2.005 -1.07)"/><path class="c" d="M68.346,15.04c0,5.876-2.464,8.847-7.331,8.847s-7.3-2.97-7.3-8.847c0-5.941,2.434-8.879,7.3-8.879S68.346,9.1,68.346,15.04Zm-10.526,0c.03,3.325,1.095,5,3.164,5s3.1-1.743,3.133-5.134c0-3.325-1.034-4.972-3.1-4.972C58.884,9.938,57.82,11.65,57.82,15.04Z" transform="translate(-2.005 -1.07)"/><path class="c" d="M84.005,6.475l-5.794,17.4H73.842l-5.763-17.4h4.555l3.316,12.2L78.8,8.021a1.961,1.961,0,0,1,2.014-1.546h3.191Z" transform="translate(-2.005 -1.07)"/><path class="c" d="M12.334,23.8H2.005V1.764A.7.7,0,0,1,2.7,1.07h10c4.279,0,7.12,1.7,7.12,5.749a4.719,4.719,0,0,1-2.741,4.713c2.239.869,3.543,2.34,3.543,5.348C20.624,21.594,17.248,23.8,12.334,23.8ZM11.721,4.988H6.563V9.878h5.226c1.842,0,3.35-.57,3.35-2.479S13.831,4.988,11.721,4.988Zm.187,8.753H6.563v5.946h5.412c2.3,0,3.708-.668,3.708-2.94C15.682,14.409,14.313,13.741,11.908,13.741Z" transform="translate(-2.005 -1.07)"/><g transform="translate(30.735 0.1)"><path class="c" d="M34.84,6.419c1.308,0,1.947.678,1.947,2.066V23.851H32.741V6.419Z" transform="translate(-32.741 -1.17)"/><path class="c" d="M34.84,1.17c1.339,0,1.977.71,1.947,2.1V4.528H32.741V1.17Z" transform="translate(-32.741 -1.17)"/></g></g></g></svg>