<svg xmlns="http://www.w3.org/2000/svg" width="70" height="19.478" viewBox="0 0 70 19.478"><defs><style>.a{fill:#545e7a;}</style></defs><path class="a" d="M22.232,13.475c.1-4.713,2.467-7.056,7.064-7.056h.493v3.8H28.621c-1.922,0-2.883,1.075-2.883,3.2V21.3H22.233V13.475Z" transform="translate(-4.965 -1.852)"/><path class="a" d="M48.337,21.282a1.621,1.621,0,0,1-1.714-1.819v-7.5a2.11,2.11,0,0,0-2.389-2.26,2.05,2.05,0,0,0-2.337,2.26v9.316H38.391V12.71c0-4.162,1.974-6.229,5.9-6.229S50.129,8.548,50.1,12.71v8.572Z" transform="translate(-7.33 -1.862)"/><path class="a" d="M66.2,13.74c0,5.016-2.1,7.552-6.259,7.552s-6.233-2.536-6.233-7.552c0-5.072,2.078-7.58,6.233-7.58S66.2,8.669,66.2,13.74Zm-8.985,0c.026,2.839.935,4.272,2.7,4.272s2.649-1.488,2.675-4.383c0-2.839-.883-4.245-2.649-4.245C58.128,9.386,57.219,10.847,57.219,13.74Z" transform="translate(-9.572 -1.815)"/><path class="a" d="M81.675,6.475,76.728,21.326H73L68.079,6.475h3.888L74.8,16.891l2.434-9.1A1.674,1.674,0,0,1,78.95,6.476h2.724Z" transform="translate(-11.675 -1.861)"/><path class="a" d="M10.823,20.473H2.005V1.663A.6.6,0,0,1,2.6,1.07h8.538c3.653,0,6.078,1.455,6.078,4.908A4.029,4.029,0,0,1,14.875,10,4.318,4.318,0,0,1,17.9,14.567C17.9,18.59,15.017,20.473,10.823,20.473ZM10.3,4.414H5.9V8.589h4.461c1.573,0,2.859-.486,2.859-2.116S12.1,4.414,10.3,4.414Zm.159,7.472H5.9v5.076h4.62c1.968,0,3.166-.57,3.166-2.51C13.681,12.457,12.512,11.886,10.459,11.886Z" transform="translate(-2.005 -1.07)"/><g transform="translate(26.237 0.086)"><path class="a" d="M34.533,6.419c1.117,0,1.662.579,1.662,1.764V21.3H32.741V6.419Z" transform="translate(-32.741 -1.938)"/><path class="a" d="M34.533,1.17c1.143,0,1.688.606,1.662,1.791V4.036H32.741V1.17Z" transform="translate(-32.741 -1.17)"/></g></svg>